<svg xmlns="http://www.w3.org/2000/svg" width="36" height="36" viewBox="0 0 36 36">
  <path fill-rule="evenodd" d="M28.943 16.586l-2.428-.405a8.918 8.918 0 0 0-.875-2.107l1.434-2.006a1 1 0 0 0-.107-1.288l-1.747-1.747a1 1 0 0 0-1.288-.107l-2.006 1.434a8.918 8.918 0 0 0-2.107-.875l-.405-2.428A1 1 0 0 0 18.428 6h-2.856a1 1 0 0 0-.986.857l-.405 2.428a8.918 8.918 0 0 0-2.107.875L10.068 8.726a1 1 0 0 0-1.288.107L7.033 10.58a1 1 0 0 0-.107 1.288l1.434 2.006a8.918 8.918 0 0 0-.875 2.107l-2.428.405A1 1 0 0 0 4.2 17.372v2.856a1 1 0 0 0 .857.986l2.428.405c.218.749.514 1.455.875 2.107l-1.434 2.006a1 1 0 0 0 .107 1.288l1.747 1.747a1 1 0 0 0 1.288.107l2.006-1.434c.652.361 1.358.657 2.107.875l.405 2.428a1 1 0 0 0 .986.857h2.856a1 1 0 0 0 .986-.857l.405-2.428a8.918 8.918 0 0 0 2.107-.875l2.006 1.434a1 1 0 0 0 1.288-.107l1.747-1.747a1 1 0 0 0 .107-1.288l-1.434-2.006c.361-.652.657-1.358.875-2.107l2.428-.405a1 1 0 0 0 .857-.986v-2.856a1 1 0 0 0-.857-.786zM17 23a5 5 0 1 1 0-10 5 5 0 0 1 0 10z"/>
</svg>
